<?xml version="1.0" encoding="UTF-8"?>
<svg id="LOGO" xmlns="http://www.w3.org/2000/svg" version="1.1" viewBox="0 0 1686.24 545.48">
  <!-- Generator: Adobe Illustrator 29.7.1, SVG Export Plug-In . SVG Version: 2.1.1 Build 8)  -->
  <g>
    <g>
      <g>
        <path d="M1524.86,350.88c-11.36,0-21.02-2.15-28.98-6.46-7.96-4.31-14.07-10.48-18.31-18.51-4.24-8.03-6.37-17.53-6.37-28.49s1.83-20.89,5.48-28.98c3.65-8.09,8.91-14.33,15.77-18.7,6.85-4.37,15.11-6.56,24.77-6.56,4.05,0,7.67.39,10.87,1.18,3.2.78,6.43,1.89,9.69,3.33v-46.61l29.18-4.7v148.65c-3.4,1.05-7.51,2.03-12.34,2.94-4.83.91-9.83,1.63-14.98,2.15-5.16.52-10.09.78-14.79.78ZM1525.06,326.01c2.61,0,5.02-.1,7.25-.29,2.22-.2,4.05-.42,5.48-.69v-53.07c-1.83-1.18-4.21-2.15-7.15-2.94-2.94-.78-5.91-1.18-8.91-1.18-3.52,0-6.56.59-9.11,1.76-2.55,1.18-4.7,2.94-6.46,5.29-1.76,2.35-3.07,5.29-3.92,8.81-.85,3.52-1.27,7.64-1.27,12.34,0,6.01.91,11.26,2.74,15.77,1.83,4.5,4.53,8,8.13,10.48,3.59,2.48,8,3.72,13.22,3.72Z" fill="#004080"/>
        <path d="M1643.93,351.07c-12.41,0-22.62-2.35-30.65-7.05-8.03-4.7-14-11.1-17.92-19.19-3.92-8.09-5.88-17.17-5.88-27.22,0-12.14,2.38-22.29,7.15-30.45,4.76-8.16,10.9-14.3,18.41-18.41,7.51-4.11,15.44-6.17,23.79-6.17,9.79,0,18.21,1.99,25.26,5.97,7.05,3.98,12.5,9.89,16.35,17.72,3.85,7.83,5.78,17.56,5.78,29.18,0,1.7-.07,3.56-.2,5.58-.13,2.03-.26,3.82-.39,5.39h-66.2c.65,6.01,3.46,10.77,8.42,14.3,4.96,3.52,11.62,5.29,19.98,5.29,5.35,0,10.61-.49,15.77-1.47,5.16-.98,9.37-2.18,12.63-3.62l3.92,23.7c-3.13,1.57-8.13,3.04-14.98,4.41-6.85,1.37-13.94,2.06-21.25,2.06ZM1619.45,286.45h38.58c-.13-3.26-.85-6.4-2.15-9.4-1.31-3-3.3-5.48-5.97-7.44-2.68-1.96-6.24-2.94-10.67-2.94s-8,.95-10.67,2.84c-2.68,1.89-4.73,4.34-6.17,7.34-1.44,3.01-2.42,6.2-2.94,9.6Z" fill="#004080"/>
      </g>
      <g>
        <path d="M615.6,348.33v-135.72h24.87c3.52,3.53,7.28,7.64,11.26,12.34,3.98,4.7,8.13,9.79,12.44,15.28,4.31,5.48,8.65,11.2,13.02,17.14,4.37,5.94,8.65,11.88,12.83,17.82,4.18,5.94,8.16,11.78,11.95,17.53v-80.1h30.36v135.72h-25.66c-3.52-6.27-7.15-12.47-10.87-18.6-3.72-6.14-7.57-12.27-11.55-18.41-3.98-6.14-8.06-12.14-12.24-18.02-4.18-5.88-8.45-11.65-12.83-17.33-4.38-5.68-8.85-11.19-13.42-16.55v88.91h-30.16Z" fill="#004080"/>
        <path d="M799.1,350.49c-8.88,0-16.65-1.08-23.31-3.23-6.66-2.15-11.82-5.71-15.47-10.67-3.66-4.96-5.48-11.62-5.48-19.98s2.06-14.49,6.17-19.19c4.11-4.7,9.5-8.06,16.16-10.09,6.66-2.02,13.71-3.04,21.15-3.04,3.78,0,7.15.17,10.09.49,2.94.33,5.32.75,7.15,1.27v-2.74c0-3.39-.65-6.3-1.96-8.71-1.31-2.41-3.43-4.31-6.36-5.68-2.94-1.37-6.89-2.06-11.85-2.06s-9.86.36-14.69,1.08c-4.83.72-9.01,1.73-12.53,3.04l-3.72-23.5c3.39-1.04,8.26-2.12,14.59-3.23,6.33-1.11,12.89-1.66,19.68-1.66,11.49,0,20.5,1.7,27.03,5.09,6.53,3.4,11.13,8.26,13.81,14.59,2.68,6.33,4.01,13.81,4.01,22.42v60.71c-4.18.91-9.99,1.99-17.43,3.23-7.44,1.24-16.45,1.86-27.03,1.86ZM801.06,327.97c2.87,0,5.61-.06,8.23-.2,2.61-.13,4.7-.32,6.27-.59v-22.13c-1.18-.26-2.94-.52-5.29-.78-2.35-.26-4.5-.39-6.46-.39-3.66,0-6.99.33-9.99.98-3.01.65-5.42,1.83-7.25,3.52-1.83,1.7-2.74,4.18-2.74,7.44,0,4.57,1.53,7.74,4.6,9.5,3.07,1.76,7.28,2.64,12.63,2.64Z" fill="#004080"/>
        <path d="M918.76,351.07c-12.53,0-22.75-2.42-30.65-7.25-7.9-4.83-13.71-11.33-17.43-19.49-3.72-8.16-5.58-17.33-5.58-27.52s2.12-19,6.37-27.22c4.24-8.23,10.31-14.79,18.21-19.68,7.9-4.9,17.4-7.34,28.49-7.34,5.48,0,10.51.49,15.08,1.47,4.57.98,9.01,2.38,13.32,4.21l-6.07,23.31c-2.74-1.04-5.75-1.96-9.01-2.74-3.27-.78-6.92-1.18-10.97-1.18-8.62,0-15.05,2.68-19.29,8.03-4.24,5.35-6.37,12.41-6.37,21.15,0,6.14.85,11.39,2.55,15.77,1.69,4.38,4.53,7.71,8.52,9.99,3.98,2.29,9.24,3.43,15.77,3.43,3.53,0,7.31-.32,11.36-.98,4.05-.65,7.77-1.69,11.16-3.13l4.11,23.89c-3.4,1.44-7.64,2.67-12.73,3.72-5.09,1.04-10.71,1.57-16.84,1.57Z" fill="#004080"/>
        <path d="M982.61,228.87c-4.7,0-8.78-1.53-12.24-4.6-3.46-3.07-5.19-7.28-5.19-12.63s1.73-9.56,5.19-12.63c3.46-3.07,7.54-4.6,12.24-4.6s8.78,1.54,12.24,4.6c3.46,3.07,5.19,7.28,5.19,12.63s-1.73,9.57-5.19,12.63c-3.46,3.07-7.54,4.6-12.24,4.6ZM967.92,348.33v-103.01h29.18v103.01h-29.18Z" fill="#004080"/>
        <path d="M1070.34,351.07c-10.06,0-18.9-2.29-26.54-6.85-7.64-4.57-13.58-10.93-17.82-19.09-4.24-8.16-6.37-17.66-6.37-28.49s2.18-20.3,6.56-28.4c4.37-8.09,10.41-14.39,18.11-18.9,7.7-4.5,16.38-6.76,26.05-6.76s18.67,2.25,26.24,6.76c7.57,4.5,13.51,10.81,17.82,18.9,4.31,8.1,6.46,17.56,6.46,28.4s-2.09,20.34-6.27,28.49c-4.18,8.16-10.02,14.53-17.53,19.09-7.51,4.57-16.42,6.85-26.73,6.85ZM1070.34,326.01c4.44,0,8.19-1.2,11.26-3.62,3.07-2.41,5.42-5.81,7.05-10.18,1.63-4.37,2.45-9.56,2.45-15.57s-.82-11.16-2.45-15.47c-1.63-4.31-3.98-7.64-7.05-9.99-3.07-2.35-6.82-3.52-11.26-3.52s-8.22,1.18-11.36,3.52c-3.13,2.35-5.52,5.68-7.15,9.99-1.63,4.31-2.45,9.47-2.45,15.47s.81,11.2,2.45,15.57c1.63,4.38,4.01,7.77,7.15,10.18,3.13,2.42,6.92,3.62,11.36,3.62Z" fill="#004080"/>
        <path d="M1143.39,348.33v-99.49c4.96-1.44,11.36-2.77,19.19-4.01,7.83-1.24,16.06-1.86,24.68-1.86,11.75,0,20.89,1.99,27.42,5.97,6.53,3.98,11.1,9.5,13.71,16.55,2.61,7.05,3.92,15.28,3.92,24.68v58.17h-29.18v-54.64c0-6.27-.52-11.29-1.57-15.08-1.05-3.79-2.84-6.53-5.39-8.23-2.55-1.69-6.1-2.55-10.67-2.55-2.09,0-4.31.1-6.66.29-2.35.2-4.44.43-6.27.69v79.51h-29.18Z" fill="#004080"/>
        <path d="M1296.15,350.49c-8.88,0-16.65-1.08-23.31-3.23-6.66-2.15-11.82-5.71-15.47-10.67-3.66-4.96-5.48-11.62-5.48-19.98s2.06-14.49,6.17-19.19c4.11-4.7,9.5-8.06,16.16-10.09,6.66-2.02,13.71-3.04,21.15-3.04,3.78,0,7.15.17,10.09.49,2.94.33,5.32.75,7.15,1.27v-2.74c0-3.39-.65-6.3-1.96-8.71-1.31-2.41-3.43-4.31-6.36-5.68-2.94-1.37-6.89-2.06-11.85-2.06s-9.86.36-14.69,1.08c-4.83.72-9.01,1.73-12.53,3.04l-3.72-23.5c3.39-1.04,8.26-2.12,14.59-3.23,6.33-1.11,12.89-1.66,19.68-1.66,11.49,0,20.5,1.7,27.03,5.09,6.53,3.4,11.13,8.26,13.81,14.59,2.68,6.33,4.01,13.81,4.01,22.42v60.71c-4.18.91-9.99,1.99-17.43,3.23-7.44,1.24-16.45,1.86-27.03,1.86ZM1298.11,327.97c2.87,0,5.61-.06,8.23-.2,2.61-.13,4.7-.32,6.27-.59v-22.13c-1.18-.26-2.94-.52-5.29-.78-2.35-.26-4.5-.39-6.46-.39-3.66,0-6.99.33-9.99.98-3.01.65-5.42,1.83-7.25,3.52-1.83,1.7-2.74,4.18-2.74,7.44,0,4.57,1.53,7.74,4.6,9.5,3.07,1.76,7.28,2.64,12.63,2.64Z" fill="#004080"/>
        <path d="M1408.17,350.29c-11.23-.26-19.81-1.83-25.75-4.7-5.94-2.87-9.99-6.95-12.14-12.24-2.15-5.29-3.23-11.58-3.23-18.9v-113.39l29.18-4.7v112.22c0,5.22.95,9.34,2.84,12.34,1.89,3,6.3,4.77,13.22,5.29l-4.11,24.09Z" fill="#004080"/>
      </g>
    </g>
    <g>
      <path d="M615.6,542.73v-135.72h91.65v25.66h-61.1v26.64h54.25v25.07h-54.25v32.71h65.61v25.66h-96.16Z" fill="#004080"/>
      <path d="M761.7,545.48c-9.14,0-16.74-.78-22.82-2.35-6.07-1.57-10.28-2.87-12.63-3.92l4.9-23.7c4.96,1.96,10.05,3.5,15.28,4.6,5.22,1.11,10.38,1.66,15.47,1.66,5.35,0,9.14-.52,11.36-1.57,2.22-1.04,3.33-3.07,3.33-6.07,0-1.57-.65-2.97-1.96-4.21-1.31-1.24-3.23-2.51-5.78-3.82-2.55-1.3-5.78-2.68-9.69-4.11-6.01-2.35-11.29-4.83-15.86-7.44-4.57-2.61-8.1-5.97-10.58-10.09-2.48-4.11-3.72-9.5-3.72-16.16s1.63-12.11,4.9-16.75c3.26-4.63,7.9-8.22,13.9-10.77,6-2.55,13.19-3.82,21.54-3.82,6.27,0,12.27.56,18.02,1.66,5.74,1.11,10.31,2.32,13.71,3.62l-5.09,22.72c-3.4-1.18-7.08-2.22-11.06-3.13-3.98-.91-8.45-1.37-13.42-1.37-4.57,0-8,.62-10.28,1.86-2.29,1.24-3.43,3.17-3.43,5.78,0,1.44.39,2.78,1.18,4.01.78,1.24,2.28,2.45,4.5,3.62,2.22,1.18,5.48,2.55,9.79,4.11,8.62,3.13,15.24,6.27,19.88,9.4,4.63,3.13,7.86,6.69,9.69,10.67,1.83,3.98,2.74,8.85,2.74,14.59,0,6.79-1.7,12.47-5.09,17.04-3.4,4.57-8.36,8.03-14.88,10.38-6.53,2.35-14.49,3.52-23.89,3.52Z" fill="#004080"/>
      <path d="M867.06,545.08c-10.58,0-18.83-1.86-24.77-5.58-5.94-3.72-10.09-8.91-12.44-15.57-2.35-6.66-3.53-14.43-3.53-23.31v-86.56l29.18-4.7v30.36h35.06v24.28h-35.06v36.23c0,4.05.46,7.61,1.37,10.67.91,3.07,2.55,5.42,4.9,7.05,2.35,1.63,5.68,2.45,9.99,2.45,3.13,0,6.36-.29,9.69-.88,3.33-.59,6.37-1.4,9.11-2.45l4.11,22.72c-3.53,1.44-7.44,2.68-11.75,3.72-4.31,1.04-9.6,1.57-15.86,1.57Z" fill="#004080"/>
      <path d="M947.74,544.89c-8.88,0-16.65-1.08-23.31-3.23-6.66-2.15-11.82-5.71-15.47-10.67-3.66-4.96-5.48-11.62-5.48-19.98s2.06-14.49,6.17-19.19c4.11-4.7,9.5-8.06,16.16-10.09,6.66-2.02,13.71-3.04,21.15-3.04,3.78,0,7.15.17,10.09.49,2.94.33,5.32.75,7.15,1.27v-2.74c0-3.39-.65-6.3-1.96-8.71-1.31-2.41-3.43-4.31-6.36-5.68-2.94-1.37-6.89-2.06-11.85-2.06s-9.86.36-14.69,1.08c-4.83.72-9.01,1.73-12.53,3.04l-3.72-23.5c3.39-1.04,8.26-2.12,14.59-3.23,6.33-1.11,12.89-1.66,19.68-1.66,11.49,0,20.5,1.7,27.03,5.09,6.53,3.4,11.13,8.26,13.81,14.59,2.68,6.33,4.01,13.81,4.01,22.42v60.71c-4.18.91-9.99,1.99-17.43,3.23-7.44,1.24-16.45,1.86-27.03,1.86ZM949.7,522.37c2.87,0,5.61-.06,8.23-.2,2.61-.13,4.7-.32,6.27-.59v-22.13c-1.18-.26-2.94-.52-5.29-.78-2.35-.26-4.5-.39-6.46-.39-3.66,0-6.99.33-9.99.98-3.01.65-5.42,1.83-7.25,3.52-1.83,1.7-2.74,4.18-2.74,7.44,0,4.57,1.53,7.74,4.6,9.5,3.07,1.76,7.28,2.64,12.63,2.64Z" fill="#004080"/>
      <path d="M1067.4,545.28c-11.36,0-21.02-2.15-28.98-6.46-7.96-4.31-14.07-10.48-18.31-18.51-4.24-8.03-6.37-17.53-6.37-28.49s1.83-20.89,5.48-28.98c3.65-8.09,8.91-14.33,15.77-18.7,6.85-4.37,15.11-6.56,24.77-6.56,4.05,0,7.67.39,10.87,1.18,3.2.78,6.43,1.89,9.69,3.33v-46.61l29.18-4.7v148.65c-3.4,1.05-7.51,2.03-12.34,2.94-4.83.91-9.83,1.63-14.98,2.15-5.16.52-10.09.78-14.79.78ZM1067.6,520.41c2.61,0,5.02-.1,7.25-.29,2.22-.2,4.05-.42,5.48-.69v-53.07c-1.83-1.18-4.21-2.15-7.15-2.94-2.94-.78-5.91-1.18-8.91-1.18-3.52,0-6.56.59-9.11,1.76-2.55,1.18-4.7,2.94-6.46,5.29-1.76,2.35-3.07,5.29-3.92,8.81-.85,3.52-1.27,7.64-1.27,12.34,0,6.01.91,11.26,2.74,15.77,1.83,4.5,4.53,8,8.13,10.48,3.59,2.48,8,3.72,13.22,3.72Z" fill="#004080"/>
      <path d="M1143.58,429.93l-13.32-11.95,27.81-31.73,17.82,16.45-32.31,27.22ZM1136.93,542.73v-103.01h29.18v103.01h-29.18Z" fill="#004080"/>
      <path d="M1222.9,545.48c-9.14,0-16.74-.78-22.82-2.35-6.07-1.57-10.28-2.87-12.63-3.92l4.9-23.7c4.96,1.96,10.05,3.5,15.28,4.6,5.22,1.11,10.38,1.66,15.47,1.66,5.35,0,9.14-.52,11.36-1.57,2.22-1.04,3.33-3.07,3.33-6.07,0-1.57-.65-2.97-1.96-4.21-1.31-1.24-3.23-2.51-5.78-3.82-2.55-1.3-5.78-2.68-9.69-4.11-6.01-2.35-11.29-4.83-15.86-7.44-4.57-2.61-8.1-5.97-10.58-10.09-2.48-4.11-3.72-9.5-3.72-16.16s1.63-12.11,4.9-16.75c3.26-4.63,7.9-8.22,13.9-10.77,6-2.55,13.19-3.82,21.54-3.82,6.27,0,12.27.56,18.02,1.66,5.74,1.11,10.31,2.32,13.71,3.62l-5.09,22.72c-3.4-1.18-7.08-2.22-11.06-3.13-3.98-.91-8.45-1.37-13.42-1.37-4.57,0-8,.62-10.28,1.86-2.29,1.24-3.43,3.17-3.43,5.78,0,1.44.39,2.78,1.18,4.01.78,1.24,2.28,2.45,4.5,3.62,2.22,1.18,5.48,2.55,9.79,4.11,8.62,3.13,15.24,6.27,19.88,9.4,4.63,3.13,7.86,6.69,9.69,10.67,1.83,3.98,2.74,8.85,2.74,14.59,0,6.79-1.7,12.47-5.09,17.04-3.4,4.57-8.36,8.03-14.88,10.38-6.53,2.35-14.49,3.52-23.89,3.52Z" fill="#004080"/>
      <path d="M1328.26,545.08c-10.58,0-18.83-1.86-24.77-5.58-5.94-3.72-10.09-8.91-12.44-15.57-2.35-6.66-3.53-14.43-3.53-23.31v-86.56l29.18-4.7v30.36h35.06v24.28h-35.06v36.23c0,4.05.46,7.61,1.37,10.67.91,3.07,2.55,5.42,4.9,7.05,2.35,1.63,5.68,2.45,9.99,2.45,3.13,0,6.36-.29,9.69-.88,3.33-.59,6.37-1.4,9.11-2.45l4.11,22.72c-3.53,1.44-7.44,2.68-11.75,3.72-4.31,1.04-9.6,1.57-15.86,1.57Z" fill="#004080"/>
      <path d="M1390.14,423.27c-4.7,0-8.78-1.53-12.24-4.6-3.46-3.07-5.19-7.28-5.19-12.63s1.73-9.56,5.19-12.63c3.46-3.07,7.54-4.6,12.24-4.6s8.78,1.54,12.24,4.6c3.46,3.07,5.19,7.28,5.19,12.63s-1.73,9.57-5.19,12.63c-3.46,3.07-7.54,4.6-12.24,4.6ZM1375.45,542.73v-103.01h29.18v103.01h-29.18Z" fill="#004080"/>
      <path d="M1480.81,545.48c-12.53,0-22.75-2.42-30.65-7.25-7.9-4.83-13.71-11.33-17.43-19.49-3.72-8.16-5.58-17.33-5.58-27.52s2.12-19,6.37-27.22c4.24-8.23,10.31-14.79,18.21-19.68,7.9-4.9,17.4-7.34,28.49-7.34,5.48,0,10.51.49,15.08,1.47,4.57.98,9.01,2.38,13.32,4.21l-6.07,23.31c-2.74-1.04-5.75-1.96-9.01-2.74-3.27-.78-6.92-1.18-10.97-1.18-8.62,0-15.05,2.68-19.29,8.03-4.24,5.35-6.37,12.41-6.37,21.15,0,6.14.85,11.39,2.55,15.77,1.69,4.38,4.53,7.71,8.52,9.99,3.98,2.29,9.24,3.43,15.77,3.43,3.53,0,7.31-.32,11.36-.98,4.05-.65,7.77-1.69,11.16-3.13l4.11,23.89c-3.4,1.44-7.64,2.67-12.73,3.72-5.09,1.04-10.71,1.57-16.84,1.57Z" fill="#004080"/>
      <path d="M1562.48,544.89c-8.88,0-16.65-1.08-23.31-3.23-6.66-2.15-11.82-5.71-15.47-10.67-3.66-4.96-5.48-11.62-5.48-19.98s2.06-14.49,6.17-19.19,9.5-8.06,16.16-10.09c6.66-2.02,13.71-3.04,21.15-3.04,3.78,0,7.15.17,10.09.49,2.94.33,5.32.75,7.15,1.27v-2.74c0-3.39-.65-6.3-1.96-8.71-1.31-2.41-3.43-4.31-6.36-5.68-2.94-1.37-6.89-2.06-11.85-2.06s-9.86.36-14.69,1.08c-4.83.72-9.01,1.73-12.53,3.04l-3.72-23.5c3.39-1.04,8.26-2.12,14.59-3.23,6.33-1.11,12.89-1.66,19.68-1.66,11.49,0,20.5,1.7,27.03,5.09,6.53,3.4,11.13,8.26,13.81,14.59,2.68,6.33,4.01,13.81,4.01,22.42v60.71c-4.18.91-9.99,1.99-17.43,3.23-7.44,1.24-16.45,1.86-27.03,1.86ZM1564.44,522.37c2.87,0,5.61-.06,8.23-.2,2.61-.13,4.7-.32,6.27-.59v-22.13c-1.18-.26-2.94-.52-5.29-.78-2.35-.26-4.5-.39-6.46-.39-3.66,0-6.99.33-9.99.98-3.01.65-5.42,1.83-7.25,3.52-1.83,1.7-2.74,4.18-2.74,7.44,0,4.57,1.53,7.74,4.6,9.5,3.07,1.76,7.28,2.64,12.63,2.64Z" fill="#004080"/>
    </g>
    <g>
      <path d="M615.6,153.93V18.21h30.55v135.72h-30.55Z" fill="#004080"/>
      <path d="M675.53,153.93V54.45c4.96-1.44,11.36-2.77,19.19-4.01,7.83-1.24,16.06-1.86,24.68-1.86,11.75,0,20.89,1.99,27.42,5.97,6.53,3.98,11.1,9.5,13.71,16.55,2.61,7.05,3.92,15.28,3.92,24.68v58.17h-29.18v-54.64c0-6.27-.52-11.29-1.57-15.08-1.05-3.79-2.84-6.53-5.39-8.23-2.55-1.69-6.1-2.55-10.67-2.55-2.09,0-4.31.1-6.66.29-2.35.2-4.44.43-6.27.69v79.51h-29.18Z" fill="#004080"/>
      <path d="M820.25,156.67c-9.14,0-16.74-.78-22.82-2.35-6.07-1.57-10.28-2.87-12.63-3.92l4.9-23.7c4.96,1.96,10.05,3.5,15.28,4.6,5.22,1.11,10.38,1.66,15.47,1.66,5.35,0,9.14-.52,11.36-1.57,2.22-1.04,3.33-3.07,3.33-6.07,0-1.57-.65-2.97-1.96-4.21-1.31-1.24-3.23-2.51-5.78-3.82-2.55-1.3-5.78-2.68-9.69-4.11-6.01-2.35-11.29-4.83-15.86-7.44-4.57-2.61-8.1-5.97-10.58-10.09-2.48-4.11-3.72-9.5-3.72-16.16s1.63-12.11,4.9-16.75c3.26-4.63,7.9-8.22,13.9-10.77,6-2.55,13.19-3.82,21.54-3.82,6.27,0,12.27.56,18.02,1.66,5.74,1.11,10.31,2.32,13.71,3.62l-5.09,22.72c-3.4-1.18-7.08-2.22-11.06-3.13-3.98-.91-8.45-1.37-13.42-1.37-4.57,0-8,.62-10.28,1.86-2.29,1.24-3.43,3.17-3.43,5.78,0,1.44.39,2.78,1.18,4.01.78,1.24,2.28,2.45,4.5,3.62,2.22,1.18,5.48,2.55,9.79,4.11,8.62,3.13,15.24,6.27,19.88,9.4,4.63,3.13,7.86,6.69,9.69,10.67,1.83,3.98,2.74,8.85,2.74,14.59,0,6.79-1.7,12.47-5.09,17.04-3.4,4.57-8.36,8.03-14.88,10.38-6.53,2.35-14.49,3.52-23.89,3.52Z" fill="#004080"/>
      <path d="M925.61,156.28c-10.58,0-18.83-1.86-24.77-5.58-5.94-3.72-10.09-8.91-12.44-15.57-2.35-6.66-3.53-14.43-3.53-23.31V25.26l29.18-4.7v30.36h35.06v24.28h-35.06v36.23c0,4.05.46,7.61,1.37,10.67.91,3.07,2.55,5.42,4.9,7.05,2.35,1.63,5.68,2.45,9.99,2.45,3.13,0,6.36-.29,9.69-.88,3.33-.59,6.37-1.4,9.11-2.45l4.11,22.72c-3.53,1.44-7.44,2.68-11.75,3.72-4.31,1.04-9.6,1.57-15.86,1.57Z" fill="#004080"/>
      <path d="M987.5,34.47c-4.7,0-8.78-1.53-12.24-4.6-3.46-3.07-5.19-7.28-5.19-12.63s1.73-9.56,5.19-12.63c3.46-3.07,7.54-4.6,12.24-4.6s8.78,1.54,12.24,4.6c3.46,3.07,5.19,7.28,5.19,12.63s-1.73,9.57-5.19,12.63c-3.46,3.07-7.54,4.6-12.24,4.6ZM972.81,153.93V50.92h29.18v103.01h-29.18Z" fill="#004080"/>
      <path d="M1069.16,156.28c-10.58,0-18.83-1.86-24.77-5.58-5.94-3.72-10.09-8.91-12.44-15.57-2.35-6.66-3.53-14.43-3.53-23.31V25.26l29.18-4.7v30.36h35.06v24.28h-35.06v36.23c0,4.05.46,7.61,1.37,10.67.91,3.07,2.55,5.42,4.9,7.05,2.35,1.63,5.68,2.45,9.99,2.45,3.13,0,6.36-.29,9.69-.88,3.33-.59,6.37-1.4,9.11-2.45l4.11,22.72c-3.53,1.44-7.44,2.68-11.75,3.72-4.31,1.04-9.6,1.57-15.86,1.57Z" fill="#004080"/>
      <path d="M1160.42,156.28c-11.62,0-20.73-2.06-27.32-6.17-6.59-4.11-11.2-9.76-13.81-16.94-2.61-7.18-3.92-15.47-3.92-24.87v-57.38h29.18v53.86c0,6.27.52,11.36,1.57,15.28,1.04,3.92,2.87,6.79,5.48,8.62,2.61,1.83,6.14,2.74,10.58,2.74,2.09,0,4.31-.1,6.66-.29,2.35-.2,4.44-.42,6.27-.69V50.92h29.18v99.49c-4.96,1.44-11.36,2.77-19.19,4.01-7.83,1.24-16.06,1.86-24.68,1.86Z" fill="#004080"/>
      <path d="M1271.46,156.28c-10.58,0-18.83-1.86-24.77-5.58-5.94-3.72-10.09-8.91-12.44-15.57-2.35-6.66-3.53-14.43-3.53-23.31V25.26l29.18-4.7v30.36h35.06v24.28h-35.06v36.23c0,4.05.46,7.61,1.37,10.67.91,3.07,2.55,5.42,4.9,7.05,2.35,1.63,5.68,2.45,9.99,2.45,3.13,0,6.36-.29,9.69-.88,3.33-.59,6.37-1.4,9.11-2.45l4.11,22.72c-3.53,1.44-7.44,2.68-11.75,3.72-4.31,1.04-9.6,1.57-15.86,1.57Z" fill="#004080"/>
      <path d="M1360.57,156.67c-10.06,0-18.9-2.29-26.54-6.85-7.64-4.57-13.58-10.93-17.82-19.09-4.24-8.16-6.37-17.66-6.37-28.49s2.18-20.3,6.56-28.4c4.37-8.09,10.41-14.39,18.11-18.9,7.7-4.5,16.38-6.76,26.05-6.76s18.67,2.25,26.24,6.76c7.57,4.5,13.51,10.81,17.82,18.9,4.31,8.1,6.46,17.56,6.46,28.4s-2.09,20.34-6.27,28.49c-4.18,8.16-10.02,14.53-17.53,19.09-7.51,4.57-16.42,6.85-26.73,6.85ZM1360.57,131.61c4.44,0,8.19-1.2,11.26-3.62,3.07-2.41,5.42-5.81,7.05-10.18,1.63-4.37,2.45-9.56,2.45-15.57s-.82-11.16-2.45-15.47c-1.63-4.31-3.98-7.64-7.05-9.99-3.07-2.35-6.82-3.52-11.26-3.52s-8.22,1.18-11.36,3.52c-3.13,2.35-5.52,5.68-7.15,9.99-1.63,4.31-2.45,9.47-2.45,15.47s.81,11.2,2.45,15.57c1.63,4.38,4.01,7.77,7.15,10.18,3.13,2.42,6.92,3.62,11.36,3.62Z" fill="#004080"/>
    </g>
  </g>
  <g>
    <g>
      <path d="M158.4,153.94v172.8H0v-140.4c0-17.89,14.51-32.4,32.4-32.4h126Z" fill="#0080ff" fill-rule="evenodd"/>
      <path d="M349.2,78.34v248.4h-158.4V110.74c0-17.89,14.51-32.4,32.4-32.4h126Z" fill="#0080ff" fill-rule="evenodd"/>
      <path d="M540,2.74v324h-158.4V35.14c0-17.89,14.51-32.4,32.4-32.4h126Z" fill="#0080ff" fill-rule="evenodd"/>
    </g>
    <g>
      <path d="M97.2,369.94v172.8H0v-140.4c0-17.9,14.51-32.4,32.4-32.4h64.8Z" fill="#004080" fill-rule="evenodd"/>
      <path d="M453.6,418.54v21.6h75.6v32.4h-59.4c-8.95,0-16.2,7.25-16.2,16.2v21.6h86.4v32.4h-183.6v-140.4c0-17.9,14.51-32.4,32.4-32.4h151.2v32.4h-70.2c-8.95,0-16.2,7.25-16.2,16.2Z" fill="#004080" fill-rule="evenodd"/>
      <path d="M324,402.34v140.4h-54v-124.2c0-8.95-7.26-16.2-16.2-16.2h-27v140.4h-97.2v-172.8h162c17.89,0,32.4,14.5,32.4,32.4Z" fill="#004080" fill-rule="evenodd"/>
    </g>
  </g>
</svg>